<?xml version="1.0" encoding="UTF-8" standalone="no"?>
<!-- Created with Inkscape (http://www.inkscape.org/) -->

<svg
   width="85.85965mm"
   height="83.892548mm"
   viewBox="0 0 85.85965 83.892548"
   version="1.1"
   id="svg5"
   xml:space="preserve"
   inkscape:version="1.2 (dc2aedaf03, 2022-05-15)"
   sodipodi:docname="kolibrika logo.svg"
   xmlns:inkscape="http://www.inkscape.org/namespaces/inkscape"
   xmlns:sodipodi="http://sodipodi.sourceforge.net/DTD/sodipodi-0.dtd"
   xmlns="http://www.w3.org/2000/svg"
   xmlns:svg="http://www.w3.org/2000/svg"><sodipodi:namedview
     id="namedview7"
     pagecolor="#ffffff"
     bordercolor="#666666"
     borderopacity="1.0"
     inkscape:showpageshadow="2"
     inkscape:pageopacity="0.0"
     inkscape:pagecheckerboard="0"
     inkscape:deskcolor="#d1d1d1"
     inkscape:document-units="mm"
     showgrid="true"
     inkscape:zoom="0.68944087"
     inkscape:cx="1021.1173"
     inkscape:cy="-1641.9102"
     inkscape:window-width="1920"
     inkscape:window-height="1017"
     inkscape:window-x="-8"
     inkscape:window-y="-8"
     inkscape:window-maximized="1"
     inkscape:current-layer="layer1"><inkscape:grid
       type="xygrid"
       id="grid2098"
       snapvisiblegridlinesonly="false"
       visible="false"
       enabled="false" /></sodipodi:namedview><defs
     id="defs2" /><g
     inkscape:label="Слой 1"
     inkscape:groupmode="layer"
     id="layer1"
     transform="translate(-329.5145,452.99187)"><g
       id="g5424-0-4-4-5"
       transform="matrix(0.65485504,0,0,0.81078358,399.87276,-222.65861)"
       style="fill:#ffffff;fill-opacity:1;stroke:none"><path
         id="path1197-5-1-8-4-4-3"
         style="opacity:1;fill:#ffffff;fill-opacity:1;stroke:none;stroke-width:0.499808;stroke-linecap:round;stroke-linejoin:round;stroke-dasharray:none;stroke-opacity:1;paint-order:markers stroke fill"
         d="m -23.693424,-282.83352 c -0.259279,-0.0984 -1.314981,2.40244 -1.945088,3.96321 0.405004,-1.59317 0.873808,-4.4068 -0.625745,-5.11991 -0.08298,-0.0393 -0.158658,-0.0671 -0.228291,-0.0818 -0.04864,-0.0106 -0.0944,-0.0153 -0.136799,-0.0152 -1.059157,0.012 -0.21579,3.38556 0.313634,5.19708 0.01004,0.0682 0.0204,0.13855 0.0301,0.2038 -0.45884,-1.57849 -1.481389,-4.24135 -3.135458,-4.09555 -0.09156,0.008 -0.170614,0.0236 -0.238201,0.0459 -1.515523,0.49684 2.758583,4.3772 3.529948,5.06286 0.02712,0.16967 0.045,0.27933 0.045,0.27933 0,0 0.0083,-0.0838 0.01978,-0.22164 0.04139,0.037 0.06405,0.0558 0.06405,0.0558 0,0 -0.01533,-0.0775 -0.04351,-0.20123 0.01737,-0.0242 0.03077,-0.0437 0.05325,-0.0756 0.01727,0.0529 0.02692,0.0816 0.02692,0.0816 0,0 0.02803,-0.0815 0.07317,-0.22451 0.611728,-0.8814 2.238182,-3.34212 2.255926,-4.61375 0.0021,-0.14982 -0.01867,-0.22583 -0.05835,-0.24096 z m 24.48342166,14.41624 c -2.04567986,-0.95855 -9.94085876,3.41513 -11.51601266,4.30896 -0.342837,-0.0584 -0.563803,-0.0955 -0.563803,-0.0955 0,0 0.154723,0.0699 0.41135,0.18133 -0.09762,0.0559 -0.149865,0.0864 -0.149865,0.0864 0,0 0.1724,0.0225 0.474543,0.0533 1.997208,0.85134 7.5412187,3.06727 10.0685066,2.58163 2.2418649,-0.43082 -4.3329765,-1.74332 -8.1972892,-2.4461 3.3230987,0.15011 9.09092169,-0.0736 9.8899621,-3.33738 0.044202,-0.18057 0.06616,-0.34196 0.067712,-0.48588 0.00482,-0.42862 -0.1716098,-0.70043 -0.48491229,-0.84723 z m -26.82728066,-9.56226 c 0.006,0.0186 0.01456,0.0451 0.01975,0.0611 -0.01815,0.0463 -0.01574,0.04 -0.02979,0.0759 0.0032,-0.0435 0.0067,-0.0883 0.01,-0.13705 z m 3.002187,2.3687 c -1.816029,-0.85244 -3.59859,-1.22588 -5.267057,-1.10339 -6.909345,0.50973 -10.681119,9.32247 -8.961929,20.93952 4.486576,-1.1259 9.216277,-1.8649 14.006191,-2.18844 4.79853,-0.31929 9.592793,-0.21735 14.1967026,0.3019 -3.0719506,-8.48704 -8.4013986,-15.33272 -13.9739116,-17.94957 z m 33.613229,24.64252 c -8.7327012,-4.29269 -20.682692,-6.26088 -32.999969,-5.43517 -24.552396,1.64601 -43.736121,13.71796 -42.847772,26.96331 0.887931,13.24525 21.51125,22.64826 46.063393,21.0022 1.105824,-0.0745 2.209746,-0.17118 3.309465,-0.28991 -0.746184,-5.05975 7.4123025,-2.14858 7.451289,-0.69842 19.747511,-3.95046 32.828283,-14.91361 32.086995,-25.97495 -0.407531,-6.07723 -5.076575,-11.64108 -13.063427,-15.56703 z m 8.333908,10.72984 c 1.671059,0.83332 2.606988,2.26007 2.625744,4.00267 0.04185,3.87654 -4.374088,8.24853 -9.86323,9.76506 -5.4889502,1.51647 -9.9725412,-0.39656 -10.0145366,-4.27292 -0.042128,-3.87649 4.3736095,-8.24858 9.8627696,-9.76529 2.636059,-0.72844 5.172199,-0.68751 7.05046,0.11381 0.11556,0.05 0.228741,0.10172 0.338918,0.15638 z m -0.623368,1.24537 c -2.217416,-1.17681 -5.72544,-0.69241 -8.5826853,1.18512 -2.5655036,1.68983 -4.6414929,5.64753 -2.9756666,8.13616 1.6658399,2.48861 6.1905209,1.95108 9.6767839,-0.33922 3.519231,-2.31251 4.871997,-5.93256 3.021476,-8.08557 -0.305483,-0.35551 -0.689048,-0.65708 -1.139949,-0.89642 z m -1.541866,0.85359 c 0.05871,0.0358 0.219273,0.2395 0.387344,0.49262 0.778187,1.17248 1.118974,1.63324 1.235779,1.67168 0.07879,0.0258 0.140454,0.15344 0.171762,0.35518 0.05268,0.33946 0.07573,0.87701 0.03706,0.86428 -0.01318,-0.004 -0.180385,-0.15646 -0.371417,-0.33802 -0.390474,-0.37091 -0.509792,-0.4303 -0.668322,-0.33077 -0.166732,0.10461 -0.171866,0.41352 -0.02736,1.55907 0.07165,0.56784 0.106018,1.04465 0.07662,1.05949 -0.02939,0.0148 -0.175029,-0.17346 -0.323453,-0.41806 -0.438401,-0.72221 -0.612316,-0.94264 -0.787409,-1.00026 -0.363954,-0.11964 -0.378743,0.14733 -0.128454,2.29506 0.09586,0.82264 0.173071,1.57395 0.171554,1.6697 -0.0027,0.16886 -0.0085,0.1652 -0.195894,-0.11902 -0.106344,-0.1611 -0.25193,-0.4335 -0.323256,-0.60503 -0.244083,-0.58701 -1.191453,-2.49187 -1.319004,-2.65188 -0.09752,-0.12242 -0.15446,-0.14908 -0.241758,-0.11502 -0.17195,0.0677 -0.172791,0.33763 -0.0074,1.80171 0.08124,0.71894 0.144942,1.38728 0.141701,1.48511 -0.0059,0.17763 -0.0061,0.17782 -0.160631,-0.0878 -0.08507,-0.14641 -0.553783,-1.03966 -1.041182,-1.98463 -0.710249,-1.37693 -0.917106,-1.72352 -1.043394,-1.74611 -0.277075,-0.0497 -0.294111,0.31428 -0.08431,1.81128 0.107737,0.76876 0.182517,1.40468 0.166093,1.41298 -0.01635,0.008 -0.311392,-0.57651 -0.654948,-1.29974 -0.621556,-1.30844 -0.78783,-1.55633 -0.955331,-1.42224 -0.132936,0.10641 -0.128738,0.31442 0.03603,1.76328 0.15488,1.36145 0.176992,1.67643 0.115374,1.65616 -0.01901,-0.005 -0.224688,-0.33558 -0.457487,-0.73194 -0.451672,-0.76906 -0.6090617,-0.95779 -0.7910357,-0.94894 -0.1590792,0.008 -0.2140856,0.22189 -0.2394723,0.93261 -0.024334,0.68089 -0.05151,0.81735 -0.1567585,0.78275 -0.03955,-0.0125 -0.360677,-0.61095 -0.7139221,-1.32854 -0.3532491,-0.71758 -0.6343397,-1.32796 -0.6249964,-1.35637 0.00933,-0.0284 0.09858,-0.0246 0.1985112,0.008 0.2220272,0.073 0.3719323,0.005 0.4388131,-0.19821 0.027694,-0.0843 0.051837,-0.60571 0.052887,-1.15837 0.00105,-0.55266 0.022441,-1.03303 0.047935,-1.06731 0.025464,-0.0342 0.2728051,0.32406 0.5493126,0.7956 0.4797616,0.81807 0.6902787,1.03919 0.8559131,0.89985 0.09735,-0.082 0.07902,-0.47758 -0.09061,-1.95848 -0.08635,-0.75377 -0.1396224,-1.37936 -0.1186991,-1.38991 0.020896,-0.0106 0.3395151,0.61518 0.7080141,1.39022 0.499064,1.04968 0.709257,1.42187 0.824114,1.45965 0.103271,0.0345 0.166465,0.0134 0.191741,-0.0627 0.02065,-0.0624 -0.05753,-0.81606 -0.174103,-1.67503 -0.116584,-0.85896 -0.192172,-1.58887 -0.167782,-1.62165 0.02438,-0.0329 0.346747,0.54606 0.716172,1.28578 0.793764,1.58932 1.312709,2.47579 1.481298,2.53124 0.314555,0.10352 0.334429,-0.24554 0.117235,-2.05584 -0.07836,-0.65316 -0.136871,-1.20404 -0.130229,-1.22422 0.03127,-0.0952 0.268271,0.3472 0.860142,1.60403 0.695182,1.47613 0.945474,1.9064 1.147012,1.97269 0.229678,0.0756 0.258059,-0.44109 0.09709,-1.76623 -0.173456,-1.42788 -0.261859,-2.45889 -0.212925,-2.48361 0.01867,-0.009 0.193435,0.2309 0.388094,0.53399 0.564643,0.87932 0.726727,1.09559 0.854624,1.13767 0.199464,0.0657 0.237111,-0.23026 0.149923,-1.18047 -0.04456,-0.48564 -0.05566,-0.89553 -0.02464,-0.9112 0.0039,-0.002 0.01032,-5.3e-4 0.0184,0.005 z m -55.222072,-24.73672 c 0,0 -0.212227,0.0745 -0.539816,0.19121 -1.966528,-0.70313 -13.007397,-4.51988 -12.416846,-1.34696 0.0263,0.14151 0.07605,0.29681 0.150656,0.46707 1.348253,3.07782 7.068398,2.3065 10.316214,1.58731 -3.685925,1.35668 -9.937273,3.77981 -7.654724,3.81881 2.573156,0.0439 7.65335,-3.09217 9.474487,-4.27415 0.29227,-0.0824 0.458323,-0.13424 0.458323,-0.13424 0,0 -0.05633,-0.0212 -0.161922,-0.0598 0.233549,-0.15406 0.373798,-0.24966 0.373798,-0.24966 z m -7.445018,32.39064 c 0.199312,0.0982 0.394987,0.20013 0.586763,0.30557 4.40659,2.42993 6.056829,6.30345 3.857806,9.05516 -2.420264,3.02832 -8.605881,3.61989 -13.816064,1.32129 -5.210032,-2.29871 -7.4717,-6.61695 -5.051613,-9.64532 2.42026,-3.02833 8.605882,-3.6199 13.816073,-1.32129 0.205623,0.0911 0.407935,0.18632 0.607045,0.28456 z m -2.9976,1.81358 -2.37e-4,4.7e-4 c -0.176135,-0.091 -0.357,-0.17688 -0.54147,-0.25857 -3.504236,-1.54606 -7.664589,-1.14814 -9.292355,0.88867 -1.628148,2.03681 -0.106993,4.94148 3.397475,6.48757 1.360377,0.60048 2.888099,0.93039 4.357428,0.94178 -0.01548,-0.0415 -0.0335,-0.10679 -0.06296,-0.22939 -0.04507,-0.18773 -0.08893,-0.49351 -0.09756,-0.67909 -0.02955,-0.63505 -0.271568,-2.74875 -0.336992,-2.94263 -0.04999,-0.14832 -0.09425,-0.19265 -0.188134,-0.19021 -0.184732,0.005 -0.277754,0.25828 -0.620881,1.69119 -0.168493,0.70364 -0.335965,1.35407 -0.372328,1.44494 -0.06603,0.16498 -0.06652,0.1646 -0.121305,-0.13778 -0.03019,-0.16659 -0.166267,-1.16556 -0.302677,-2.22001 -0.198765,-1.53653 -0.275444,-1.93309 -0.386483,-1.99734 -0.243596,-0.14113 -0.383606,0.19545 -0.696241,1.67442 -0.160546,0.75949 -0.306762,1.38256 -0.325034,1.38478 -0.01831,0.002 -0.09594,-0.64809 -0.172612,-1.44509 -0.138723,-1.44192 -0.210822,-1.73191 -0.413967,-1.6629 -0.161242,0.0548 -0.228296,0.2524 -0.566832,1.67077 -0.318101,1.33281 -0.404738,1.63624 -0.455767,1.59619 -0.01533,-0.0125 -0.09667,-0.39202 -0.180542,-0.84396 -0.162743,-0.87688 -0.246548,-1.10797 -0.420652,-1.16162 -0.152204,-0.047 -0.276925,0.13572 -0.542888,0.79532 -0.254805,0.63187 -0.326752,0.7507 -0.413865,0.68234 -0.03221,-0.0261 -0.131422,-0.69694 -0.219134,-1.49193 -0.08771,-0.795 -0.144234,-1.46459 -0.125764,-1.48813 0.01838,-0.0233 0.101425,0.0106 0.184265,0.0752 0.184149,0.14398 0.348122,0.13143 0.480187,-0.0367 0.0548,-0.0698 0.254304,-0.55186 0.443574,-1.0711 0.189234,-0.51926 0.373347,-0.96318 0.409033,-0.98672 0.03565,-0.0236 0.145755,0.39696 0.245152,0.93447 0.172424,0.93258 0.295073,1.21254 0.49826,1.13795 0.119446,-0.0439 0.237358,-0.42196 0.58226,-1.87209 0.175557,-0.73812 0.338092,-1.34482 0.361372,-1.34763 0.02326,-0.003 0.109696,0.69414 0.192177,1.54836 0.111705,1.15688 0.182714,1.57874 0.277835,1.65338 0.08562,0.0673 0.152223,0.0689 0.201746,0.006 0.04076,-0.0515 0.223754,-0.78717 0.40672,-1.63449 0.182942,-0.8473 0.360687,-1.55903 0.394777,-1.58154 0.0341,-0.0225 0.140091,0.63085 0.235485,1.45216 0.20496,1.76466 0.390729,2.77526 0.530343,2.8848 0.260324,0.20471 0.397904,-0.11691 0.810322,-1.89297 0.148801,-0.64081 0.281229,-1.17899 0.294342,-1.1957 0.06189,-0.0789 0.134595,0.41809 0.263021,1.80132 0.150825,1.62466 0.239341,2.11409 0.406251,2.24507 0.190341,0.14913 0.392834,-0.32631 0.69284,-1.62704 0.323248,-1.40158 0.591315,-2.40084 0.645739,-2.40742 0.0209,-0.003 0.103012,0.28309 0.182785,0.63435 0.231381,1.01906 0.310383,1.27728 0.416307,1.36039 0.165225,0.12955 0.301302,-0.13545 0.542965,-1.05854 0.123523,-0.47178 0.252914,-0.86128 0.28742,-0.86544 0.03455,-0.004 0.12986,0.26866 0.211867,0.60611 0.332311,1.36742 0.495415,1.91653 0.59216,1.99243 0.06565,0.0507 0.07983,0.19224 0.04054,0.39259 -0.06608,0.3371 -0.227709,0.8501 -0.259743,0.82496 -0.01069,-0.009 -0.115989,-0.20813 -0.233812,-0.44385 -0.24082,-0.4817 -0.332993,-0.57812 -0.515652,-0.53869 -0.192387,0.0415 -0.302641,0.32999 -0.556966,1.4563 -0.126056,0.55832 -0.256115,1.0184 -0.288809,1.02235 -0.03267,0.004 -0.105324,-0.2226 -0.16156,-0.50313 -0.166228,-0.82829 -0.254447,-1.09499 -0.399456,-1.2088 -0.301391,-0.2365 -0.406488,0.01 -0.902688,2.11428 -0.19006,0.80611 -0.373617,1.53875 -0.407663,1.62826 -0.0089,0.0235 -0.01443,0.0353 -0.02141,0.0511 2.145762,0.004 3.950878,-0.6737 4.875528,-1.83058 0.222847,-0.27964 1.28787,-2.10399 0.141416,-3.57956 -0.585658,-1.02092 -1.640997,-1.95387 -2.997271,-2.64973 z"
         sodipodi:nodetypes="cccccccccccccccccsccscccccscscsssccsscccccccccccsccccccccccccccscccccsssssscsssssccsssssssssscsssssscsssssssscsssscssssscsssccccccccscccccscccccssccccscssscsssscssssssssscsscssssssssccssssssssssssscscsccssscsssccccccc" /><g
         aria-label="Kolibrika "
         transform="rotate(15.061267,-5.874107,17.026414)"
         id="text4511-2-0-3-6"
         style="font-weight:bold;font-size:12.8491px;line-height:0.2;font-family:'Segoe Script';-inkscape-font-specification:'Segoe Script Bold';fill:#ffffff;fill-opacity:1;stroke:none;stroke-width:0.602303"><path
           d="m -136.73908,-173.13481 q 0,0.17567 -0.0753,0.33879 -0.0753,0.15685 -0.21332,0.27606 -0.13802,0.11293 -0.33252,0.18194 -0.19449,0.069 -0.4329,0.069 -0.38271,0 -1.15441,-0.26351 -0.64622,-0.22586 -1.33009,-0.50819 -0.67758,-0.28861 -1.39282,-0.64622 -0.33879,-0.1694 -0.84071,-0.31998 -0.49564,-0.15057 -1.0854,-0.22586 -0.0251,0.0502 -0.0502,0.18195 -0.0188,0.12548 -0.0376,0.28233 -0.0126,0.15684 -0.0188,0.31997 -0.006,0.16312 -0.006,0.2886 0,0.27606 0.0439,0.47055 0.0439,0.18822 0.13175,0.38271 0.11921,0.23214 0.17567,0.40781 0.0565,0.1694 0.0565,0.26978 0,0.24469 -0.25096,0.42036 -0.25096,0.17567 -0.73406,0.30115 -0.31997,-0.18822 -0.51446,-0.41408 -0.19449,-0.22587 -0.30115,-0.49565 -0.10666,-0.26978 -0.1443,-0.5772 -0.0314,-0.3137 -0.0314,-0.65877 0,-0.20704 0.006,-0.57093 0.0126,-0.37017 0.0251,-0.83444 0.0188,-0.47055 0.0376,-1.00384 0.0188,-0.53329 0.0376,-1.06657 0.0188,-0.53329 0.0376,-1.03521 0.0188,-0.50192 0.0314,-0.90973 0.0188,-0.4078 0.0251,-0.67759 0.0125,-0.27605 0.0125,-0.35761 0,-0.0314 -0.006,-0.0816 -0.006,-0.0565 -0.0188,-0.11921 -0.006,-0.0627 -0.0126,-0.12548 -0.006,-0.0627 -0.006,-0.10038 0,-0.25723 0.23842,-0.49565 0.22586,-0.21331 0.53328,-0.21331 0.25096,0 0.49565,0.13175 0.36389,0.18195 0.36389,0.43291 0,0.0878 -0.0251,0.21331 -0.0188,0.12548 -0.0314,0.21959 -0.0314,0.22586 -0.0502,0.46428 -0.0188,0.23213 -0.0314,0.48937 -0.0314,0.63994 -0.0565,1.36772 -0.0188,0.72151 -0.0439,1.54967 0.0439,-0.0251 0.11293,-0.0627 0.0753,-0.0376 0.15685,-0.0816 0.0816,-0.0502 0.16312,-0.10038 0.0816,-0.0502 0.1443,-0.0941 0.50819,-0.30743 1.01011,-0.73406 0.50819,-0.4329 0.99756,-1.01638 0.32625,-0.38899 0.59603,-0.69641 0.26978,-0.3137 0.50819,-0.57721 0.23841,-0.26978 0.45173,-0.50819 0.21959,-0.23841 0.44545,-0.47055 0.0439,-0.0439 0.11293,-0.10665 0.069,-0.069 0.15058,-0.12548 0.0878,-0.0627 0.18194,-0.10039 0.0941,-0.0439 0.1945,-0.0439 0.0941,0 0.21959,0.0878 0.12548,0.0878 0.23213,0.20704 0.11294,0.11921 0.18822,0.25096 0.0816,0.12548 0.0816,0.21332 0,0.10665 -0.10038,0.30742 l -0.10666,0.21959 q -0.0188,0.0314 -0.0376,0.0816 -0.0126,0.0502 -0.0251,0.0816 -0.0188,0.0565 -0.0376,0.10039 -0.0188,0.0439 -0.0565,0.0878 -0.0376,0.0439 -0.10038,0.0878 -0.0565,0.0439 -0.15685,0.0941 -0.0627,0.0314 -0.13803,0.0565 -0.069,0.0251 -0.13802,0.0565 -0.0627,0.0251 -0.11294,0.0565 -0.0439,0.0251 -0.0565,0.0565 -0.21332,0.33252 -0.35762,0.52074 -0.1443,0.18195 -0.25096,0.31997 -0.17567,0.21959 -0.4078,0.46428 -0.23214,0.23841 -0.47055,0.458 -0.23841,0.21959 -0.49565,0.43918 -0.25096,0.21331 -0.48937,0.38898 -0.10038,0.0753 -0.20704,0.1443 -0.10038,0.0627 -0.21959,0.13803 -0.11293,0.0753 -0.24468,0.16312 -0.13176,0.0816 -0.28233,0.18822 0.74033,0.25724 1.53085,0.6023 0.79052,0.3388 1.64378,0.6525 0.27605,0.10038 0.42663,0.15685 0.15058,0.0565 0.25096,0.0878 0.10038,0.0251 0.17567,0.0314 0.0816,0.006 0.21332,0.006 0.0627,0 0.18194,-0.0126 0.11921,-0.0126 0.26351,-0.0314 0.1443,-0.0188 0.30115,-0.0439 0.16312,-0.0251 0.30742,-0.0439 0.10666,0.17567 0.16313,0.35135 0.0627,0.16939 0.0627,0.33252 z"
           id="path5393-0-66-0-6"
           style="fill:#ffffff;fill-opacity:1;stroke:none" /><path
           d="m -132.43759,-174.48314 q 0,-0.1443 -0.0126,-0.23213 -0.006,-0.0878 -0.0251,-0.1443 -0.0188,-0.0565 -0.0502,-0.0878 -0.0251,-0.0376 -0.0565,-0.069 -0.0627,-0.069 -0.13803,-0.16313 -0.0753,-0.10038 -0.1443,-0.18822 -0.0627,-0.0941 -0.11921,-0.15685 -0.0502,-0.069 -0.0753,-0.069 -0.16313,0 -0.34507,0.11293 -0.17567,0.11293 -0.35135,0.30743 -0.17567,0.19449 -0.34506,0.458 -0.16313,0.2635 -0.30743,0.57093 -0.1192,0.25723 -0.23841,0.55838 -0.11293,0.30115 -0.20704,0.61485 -0.0941,0.3137 -0.15058,0.62112 -0.0565,0.30116 -0.0565,0.56466 0,0.16313 0.13175,0.28861 0.13803,0.1192 0.39526,0.1192 0.11293,0 0.29488,-0.0753 0.18194,-0.0753 0.37644,-0.18194 0.19449,-0.11293 0.37016,-0.23841 0.17567,-0.13176 0.27606,-0.23841 0.28233,-0.29488 0.43917,-0.53957 0.15685,-0.25095 0.23214,-0.51446 0.0753,-0.26351 0.0878,-0.57093 0.0188,-0.3137 0.0188,-0.74661 z m 5.16348,-1.45556 q 0,0.18822 -0.1192,0.36389 -0.11294,0.1694 -0.3137,0.32625 -0.1945,0.15057 -0.458,0.28233 -0.26351,0.13175 -0.55211,0.23213 -0.28233,0.10039 -0.58348,0.17568 -0.29488,0.069 -0.56466,0.10038 -0.0251,0 -0.13175,0.006 -0.10666,0.006 -0.25724,0.0188 -0.15057,0.006 -0.31997,0.0188 -0.1694,0.006 -0.31997,0.006 -0.0878,0 -0.18195,0 -0.0941,-0.006 -0.1443,-0.0188 0.0126,0.0941 0.0188,0.16312 0.006,0.0627 0.0126,0.11921 0.006,0.0502 0.006,0.10666 0,0.0502 0,0.12548 v 0.64621 q 0,0.15058 -0.0314,0.33253 -0.0314,0.18194 -0.0878,0.36389 -0.0565,0.18194 -0.13803,0.35134 -0.0753,0.16312 -0.17567,0.29488 -0.1443,0.19449 -0.36389,0.39526 -0.21332,0.19449 -0.47682,0.38271 -0.26351,0.18194 -0.56466,0.34507 -0.29488,0.15685 -0.59603,0.28233 -0.29487,0.1192 -0.58348,0.18821 -0.2886,0.069 -0.53956,0.069 -0.47682,0 -0.79052,-0.15685 -0.30742,-0.15058 -0.49564,-0.40781 -0.18195,-0.26351 -0.25724,-0.60857 -0.069,-0.35135 -0.069,-0.74033 0,-0.30743 0.0565,-0.60231 0.0627,-0.29487 0.16312,-0.58347 0.10038,-0.28861 0.23214,-0.56466 0.13175,-0.28233 0.26978,-0.55839 0.1192,-0.23213 0.24468,-0.47682 0.12548,-0.24468 0.25096,-0.46427 0.17567,-0.3137 0.34507,-0.57721 0.17567,-0.26351 0.42036,-0.45172 0.24468,-0.18822 0.58975,-0.28861 0.35134,-0.10665 0.86581,-0.10665 0.21331,0 0.37016,0.0439 0.15685,0.0439 0.28233,0.12548 0.12548,0.0816 0.22586,0.20704 0.10666,0.11921 0.21332,0.27606 0.0816,0.1192 0.15685,0.21959 0.0816,0.10038 0.18194,0.17567 0.10666,0.069 0.25724,0.10666 0.15057,0.0376 0.37644,0.0376 0.30115,0 0.49564,0 0.20077,0 0.32625,0 0.12548,-0.006 0.20076,-0.0125 0.0816,-0.006 0.1443,-0.0126 0.24469,-0.0314 0.45173,-0.0627 0.20704,-0.0376 0.40781,-0.0816 0.20077,-0.0439 0.40781,-0.10038 0.20704,-0.0627 0.45172,-0.13803 0.0816,-0.0251 0.16313,-0.0502 0.0878,-0.0314 0.18822,-0.0314 0.17567,0 0.25723,0.0439 0.0816,0.0376 0.0816,0.16312 z"
           id="path5395-9-4-6-8"
           style="fill:#ffffff;fill-opacity:1;stroke:none" /><path
           d="m -123.16387,-172.45336 q -0.48937,0.68386 -0.99128,1.24225 -0.50192,0.55211 -0.99757,0.94737 -0.48937,0.38898 -0.96619,0.6023 -0.47055,0.21331 -0.90345,0.21331 -0.75288,0 -1.19205,-0.6023 -0.43291,-0.6023 -0.43291,-1.76299 0,-0.60857 0.069,-1.33635 0.0753,-0.72778 0.1945,-1.47439 0.1192,-0.7466 0.2635,-1.46183 0.14431,-0.72151 0.28233,-1.31754 0.11294,-0.48937 0.23841,-0.84698 0.13176,-0.35762 0.28233,-0.58348 0.15685,-0.23214 0.34507,-0.3388 0.18822,-0.11293 0.43291,-0.11293 0.17567,0 0.28233,0.069 0.11293,0.069 0.17567,0.18195 0.069,0.10666 0.0941,0.25096 0.0251,0.1443 0.0251,0.29487 0,0.17568 -0.0816,0.50192 -0.0816,0.31998 -0.19449,0.67759 -0.10666,0.35762 -0.21332,0.69641 -0.10666,0.33252 -0.15685,0.53957 -0.0878,0.38898 -0.18194,0.90972 -0.0941,0.51447 -0.17567,1.06658 -0.0753,0.55211 -0.12548,1.09794 -0.0502,0.53956 -0.0502,0.99129 0,0.34507 0.0502,0.57721 0.0502,0.22586 0.12548,0.36389 0.0753,0.13175 0.16312,0.18822 0.0878,0.0502 0.16312,0.0502 0.27606,0 0.64622,-0.21959 0.37644,-0.21959 0.79052,-0.57721 0.42036,-0.36389 0.85326,-0.83444 0.43918,-0.47682 0.83444,-0.98501 0.10666,-0.16312 0.20077,-0.25723 0.10038,-0.10039 0.26351,-0.10039 0.1443,0 0.21959,0.10039 0.0753,0.0941 0.0753,0.21331 0,0.10666 -0.0314,0.23841 -0.0314,0.13176 -0.0878,0.26978 -0.0565,0.13803 -0.13176,0.27606 -0.069,0.13175 -0.15057,0.25096 z"
           id="path5397-0-8-8-1"
           style="fill:#ffffff;fill-opacity:1;stroke:none" /><path
           d="m -119.98408,-178.47614 q 0,0.10666 -0.0502,0.25723 -0.0439,0.1443 -0.11921,0.30743 -0.0753,0.15685 -0.1694,0.31997 -0.0941,0.15685 -0.19449,0.28233 -0.10038,0.12548 -0.18822,0.20704 -0.0878,0.0753 -0.15685,0.0753 -0.0941,0 -0.24468,-0.0314 -0.15058,-0.0314 -0.30115,-0.0941 -0.1443,-0.069 -0.25096,-0.16313 -0.10666,-0.0941 -0.10666,-0.21958 0,-0.0941 0.0251,-0.16313 0.0314,-0.069 0.0627,-0.13803 0.0376,-0.0753 0.0627,-0.16312 0.0314,-0.0878 0.0314,-0.21959 0,-0.16312 0.0502,-0.30742 0.0502,-0.15058 0.1443,-0.25724 0.0941,-0.11293 0.22586,-0.17567 0.13175,-0.069 0.30115,-0.069 0.0816,0 0.22587,0.0125 0.15057,0.006 0.29487,0.0565 0.1443,0.0502 0.25096,0.16313 0.10666,0.11293 0.10666,0.31997 z m 3.19345,5.26386 q -0.0627,0.13176 -0.21331,0.3388 -0.15058,0.20077 -0.3388,0.4329 -0.18822,0.23214 -0.39526,0.47055 -0.20077,0.23214 -0.37644,0.42036 -0.5772,0.62112 -1.09167,1.07912 -0.50819,0.458 -0.97246,0.75915 -0.458,0.30115 -0.87209,0.44545 -0.41408,0.14431 -0.79679,0.14431 -0.36389,0 -0.64622,-0.14431 -0.27606,-0.13802 -0.46428,-0.38271 -0.18821,-0.24468 -0.28232,-0.57093 -0.0941,-0.33252 -0.0941,-0.71523 0,-0.30115 0.0188,-0.65877 0.0188,-0.35762 0.0439,-0.70896 0.0314,-0.35762 0.069,-0.67131 0.0376,-0.3137 0.069,-0.52074 0.0188,-0.0941 0.0251,-0.21332 0.0126,-0.11921 0.0188,-0.23841 0.006,-0.12548 0.006,-0.23214 0.006,-0.11293 0.006,-0.18822 0,-0.0816 0.0627,-0.25096 0.069,-0.17567 0.18822,-0.35134 0.12548,-0.18194 0.30115,-0.3137 0.17567,-0.13803 0.39526,-0.13803 0.35762,0 0.55838,0.14431 0.20704,0.1443 0.20704,0.52701 0,0.0753 -0.0439,0.25723 -0.0376,0.17567 -0.10039,0.42663 -0.0627,0.25096 -0.13802,0.55839 -0.069,0.30115 -0.13176,0.63367 -0.0627,0.33252 -0.10666,0.67759 -0.0376,0.33879 -0.0376,0.65877 0,0.21958 0.0251,0.4078 0.0251,0.18822 0.069,0.32625 0.0439,0.13175 0.10038,0.20704 0.0627,0.0753 0.12548,0.0753 0.25096,0 0.51447,-0.0816 0.26351,-0.0878 0.58348,-0.30743 0.32625,-0.21959 0.74033,-0.6023 0.41408,-0.38899 0.96619,-0.99129 0.19449,-0.20704 0.35134,-0.38271 0.16313,-0.17567 0.31998,-0.35134 0.16312,-0.17567 0.33252,-0.37017 0.17567,-0.19449 0.38898,-0.44545 0.0502,-0.069 0.1443,-0.10038 0.0941,-0.0377 0.1945,-0.0377 0.069,0 0.1443,0.0251 0.0753,0.0188 0.13175,0.069 0.0627,0.0502 0.10039,0.14431 0.0376,0.0878 0.0376,0.23213 0,0.10666 -0.0314,0.23841 -0.0251,0.12548 -0.10666,0.26978 z"
           id="path5399-0-3-6-8"
           style="fill:#ffffff;fill-opacity:1;stroke:none" /><path
           d="m -107.43948,-174.14632 q 0,0.17567 -0.1192,0.38272 -0.11921,0.20076 -0.32625,0.42035 -0.20077,0.21332 -0.46427,0.43291 -0.25724,0.21331 -0.53956,0.42663 -0.28233,0.20704 -0.56466,0.40153 -0.27606,0.19449 -0.52074,0.35762 -0.0878,0.0627 -0.33252,0.22586 -0.23841,0.16312 -0.55211,0.37644 -0.3137,0.21331 -0.67132,0.458 -0.35134,0.23841 -0.67131,0.458 -0.3137,0.21331 -0.55211,0.38271 -0.23841,0.1694 -0.33252,0.23841 -0.13176,0.10039 -0.24469,0.20704 -0.11293,0.10039 -0.23214,0.20704 -0.11293,0.10666 -0.25723,0.22587 -0.13803,0.1192 -0.32625,0.25723 -0.35761,0.26978 -0.8658,0.26978 -0.12548,0 -0.26351,-0.0314 -0.13803,-0.0251 -0.25723,-0.0878 -0.11294,-0.0627 -0.18822,-0.1694 -0.0753,-0.10666 -0.0753,-0.26978 0,-0.12548 0.0941,-0.26978 0.10038,-0.1443 0.25096,-0.28861 0.15685,-0.1443 0.33879,-0.27605 0.18822,-0.13803 0.36389,-0.25096 0.17567,-0.11921 0.3137,-0.20077 0.13803,-0.0878 0.20077,-0.12548 0.2886,-0.18194 0.50192,-0.31997 0.21959,-0.1443 0.40153,-0.2886 0.18195,-0.1443 0.34507,-0.3137 0.1694,-0.17567 0.35134,-0.41408 0.10039,-0.13176 0.1945,-0.29488 0.10038,-0.16312 0.17567,-0.34507 0.0816,-0.18194 0.12548,-0.36389 0.0502,-0.18822 0.0502,-0.35762 0,-0.28232 -0.0502,-0.48309 -0.0439,-0.20077 -0.11921,-0.32625 -0.0753,-0.13175 -0.17567,-0.19449 -0.0941,-0.0627 -0.19449,-0.0627 -0.25096,0 -0.50192,0.1192 -0.25096,0.11921 -0.48937,0.3137 -0.23841,0.1945 -0.47055,0.44546 -0.22586,0.25095 -0.42663,0.51446 -0.20077,0.25723 -0.37644,0.51447 -0.17567,0.25096 -0.3137,0.458 -0.28233,0.41408 -0.4329,0.79052 -0.15058,0.37644 -0.16312,0.64622 l 0.0251,0.52074 q -0.0126,0.2635 -0.21331,0.40781 -0.20077,0.1443 -0.4831,0.1443 -0.36389,0 -0.53956,-0.38272 -0.1694,-0.38271 -0.1694,-1.22969 0,-0.41409 0.0439,-0.89718 0.0439,-0.48937 0.10666,-1.00384 0.069,-0.52074 0.15057,-1.04148 0.0816,-0.52701 0.16313,-1.01638 0.0188,-0.11293 0.0565,-0.37017 0.0439,-0.2635 0.10038,-0.59602 0.0565,-0.33253 0.11294,-0.69642 0.0627,-0.36389 0.11293,-0.69013 0.0565,-0.32625 0.10038,-0.57093 0.0439,-0.24469 0.0627,-0.3388 0.0376,-0.18194 0.12548,-0.33879 0.0941,-0.15685 0.20704,-0.26978 0.11293,-0.11294 0.23214,-0.17568 0.12548,-0.0627 0.23214,-0.0627 0.23213,0 0.38271,0.0565 0.15685,0.0502 0.24468,0.15058 0.0941,0.0941 0.13176,0.23841 0.0376,0.1443 0.0376,0.32624 0,0.006 -0.0251,0.12548 -0.0188,0.11293 -0.0565,0.28233 -0.0314,0.16312 -0.069,0.35762 -0.0376,0.19449 -0.0753,0.36389 -0.0314,0.1694 -0.0565,0.2886 -0.0188,0.11293 -0.0251,0.12548 -0.10666,0.54584 -0.23214,1.07912 -0.12548,0.52702 -0.24469,1.01639 -0.11293,0.48309 -0.20704,0.89718 -0.0941,0.41408 -0.13175,0.7215 0.15057,-0.25096 0.35762,-0.51446 0.21331,-0.26978 0.45172,-0.52074 0.23841,-0.25096 0.4831,-0.47055 0.24468,-0.21959 0.458,-0.37016 0.37644,-0.26979 0.71523,-0.39527 0.34507,-0.12547 0.70269,-0.12547 0.39526,0 0.72778,0.18821 0.33879,0.18822 0.58348,0.48937 0.24468,0.30116 0.38271,0.67132 0.13803,0.37016 0.13803,0.72778 0,0.0627 -0.0126,0.1694 -0.0125,0.10666 -0.0439,0.23214 -0.0314,0.12547 -0.0816,0.2635 -0.0502,0.13176 -0.12548,0.24469 0.31997,-0.23214 0.67132,-0.47055 0.35761,-0.24469 0.70895,-0.48937 0.35762,-0.25096 0.69642,-0.50192 0.34506,-0.25096 0.64621,-0.49564 0.15685,-0.13176 0.30116,-0.17567 0.15057,-0.0439 0.19449,-0.0439 0.18194,0.0126 0.24468,0.13803 0.0627,0.12548 0.0627,0.23213 z"
           id="path5401-7-2-8-0"
           style="fill:#ffffff;fill-opacity:1;stroke:none" /><path
           d="m -102.38665,-174.16385 q -0.006,0.21331 -0.0816,0.35761 -0.069,0.1443 -0.18195,0.23214 -0.10665,0.0816 -0.24468,0.11921 -0.13803,0.0314 -0.27606,0.0314 -0.11293,0 -0.22586,-0.0314 -0.11293,-0.0314 -0.23214,-0.0314 -0.20076,0 -0.49564,0.12548 -0.2886,0.1192 -0.59603,0.31369 -0.30742,0.1945 -0.6023,0.43291 -0.29488,0.23841 -0.50819,0.47055 -0.11921,0.13175 -0.27606,0.31997 -0.15684,0.18194 -0.30115,0.38271 -0.13802,0.20077 -0.23841,0.40154 -0.0941,0.20076 -0.0941,0.36389 0,0.20076 0.0376,0.47054 0.0439,0.26979 0.0439,0.57094 0,0.10665 -0.006,0.20076 0,0.0878 -0.0251,0.17567 -0.0126,0.0753 -0.0816,0.1694 -0.0627,0.0878 -0.16312,0.1694 -0.10038,0.0878 -0.21959,0.1443 -0.1192,0.0565 -0.24468,0.0565 -0.20705,0 -0.35135,-0.15058 -0.1443,-0.15057 -0.23213,-0.42036 -0.0816,-0.26978 -0.11921,-0.63367 -0.0376,-0.36389 -0.0376,-0.78424 0,-0.0251 0,-0.1694 0.006,-0.1443 0.006,-0.3137 0.006,-0.1694 0.0126,-0.32625 0.006,-0.15685 0.006,-0.20076 0,-0.0251 0.006,-0.16313 0.0125,-0.13802 0.0251,-0.33252 0.0188,-0.20076 0.0314,-0.42663 0.0188,-0.23213 0.0314,-0.43918 0.0188,-0.20704 0.0314,-0.36389 0.0126,-0.16312 0.0188,-0.21331 0.006,-0.0188 0.0126,-0.12548 0.0125,-0.11293 0.0251,-0.25723 0.0188,-0.14431 0.0439,-0.29488 0.0251,-0.15058 0.0502,-0.25096 0.0251,-0.0878 0.10038,-0.20704 0.0816,-0.11921 0.20077,-0.22586 0.12548,-0.11294 0.27605,-0.18822 0.15058,-0.0816 0.31998,-0.0816 0.20076,0 0.31997,0.0627 0.12548,0.0627 0.19449,0.15685 0.0753,0.0878 0.10039,0.1945 0.0251,0.10038 0.0251,0.18194 0,0.0502 -0.0376,0.22587 -0.0376,0.16939 -0.10039,0.37643 -0.0753,0.27606 -0.13175,0.64622 -0.0565,0.36389 -0.0878,0.70269 0.34507,-0.38899 0.74033,-0.78425 0.39526,-0.40153 0.82189,-0.72151 0.42663,-0.32624 0.87209,-0.52701 0.44545,-0.20704 0.8909,-0.20704 0.21959,0 0.39526,0.0753 0.17567,0.069 0.29488,0.18822 0.12548,0.11293 0.18822,0.25723 0.069,0.13803 0.069,0.28233 v 0.0126 z"
           id="path5403-2-1-7-2"
           style="fill:#ffffff;fill-opacity:1;stroke:none" /><path
           d="m -98.440591,-177.88118 q 0,0.10666 -0.05019,0.25723 -0.04392,0.1443 -0.119206,0.30743 -0.07529,0.15685 -0.169397,0.31997 -0.09411,0.15685 -0.194493,0.28233 -0.100384,0.12548 -0.188219,0.20704 -0.08784,0.0753 -0.15685,0.0753 -0.09411,0 -0.244685,-0.0314 -0.150575,-0.0314 -0.301151,-0.0941 -0.144298,-0.069 -0.250948,-0.16313 -0.10666,-0.0941 -0.10666,-0.21958 0,-0.0941 0.0251,-0.16313 0.0314,-0.069 0.0627,-0.13803 0.0376,-0.0753 0.0627,-0.16312 0.0314,-0.0878 0.0314,-0.21959 0,-0.16312 0.0502,-0.30742 0.05017,-0.15058 0.144297,-0.25724 0.09411,-0.11293 0.225863,-0.17567 0.131754,-0.069 0.301151,-0.069 0.08156,0 0.225863,0.0125 0.150576,0.006 0.294877,0.0565 0.144301,0.0502 0.250959,0.16313 0.106658,0.11293 0.106658,0.31997 z m 3.193453,5.26386 q -0.06274,0.13176 -0.213315,0.3388 -0.150576,0.20077 -0.338795,0.4329 -0.188219,0.23214 -0.39526,0.47055 -0.200768,0.23214 -0.376439,0.42036 -0.577206,0.62112 -1.091672,1.07912 -0.508191,0.458 -0.972466,0.75915 -0.458,0.30115 -0.872082,0.44545 -0.414082,0.14431 -0.796783,0.14431 -0.36389,0 -0.64622,-0.14431 -0.27606,-0.13802 -0.46428,-0.38271 -0.18821,-0.24468 -0.28232,-0.57093 -0.0941,-0.33252 -0.0941,-0.71523 0,-0.30115 0.0188,-0.65877 0.0188,-0.35762 0.0439,-0.70896 0.0314,-0.35762 0.069,-0.67131 0.0376,-0.3137 0.069,-0.52074 0.0188,-0.0941 0.0251,-0.21332 0.0126,-0.11921 0.0188,-0.23841 0.006,-0.12548 0.006,-0.23214 0.006,-0.11293 0.006,-0.18822 0,-0.0816 0.0627,-0.25096 0.069,-0.17567 0.18822,-0.35134 0.12548,-0.18194 0.30115,-0.3137 0.17567,-0.13803 0.39526,-0.13803 0.35762,0 0.55838,0.14431 0.207034,0.1443 0.207034,0.52701 0,0.0753 -0.04392,0.25723 -0.03764,0.17567 -0.100383,0.42663 -0.06274,0.25096 -0.138011,0.55839 -0.069,0.30115 -0.13176,0.63367 -0.0627,0.33252 -0.10666,0.67759 -0.0376,0.33879 -0.0376,0.65877 0,0.21958 0.0251,0.4078 0.0251,0.18822 0.069,0.32625 0.0439,0.13175 0.10038,0.20704 0.0627,0.0753 0.12548,0.0753 0.25095,0 0.514457,-0.0816 0.263507,-0.0878 0.58348,-0.30743 0.326246,-0.21959 0.740329,-0.6023 0.414082,-0.38899 0.966192,-0.99129 0.194493,-0.20704 0.351342,-0.38271 0.163124,-0.17567 0.319973,-0.35134 0.163123,-0.17567 0.332521,-0.37017 0.175671,-0.19449 0.388986,-0.44545 0.05019,-0.069 0.144302,-0.10038 0.09411,-0.0377 0.194493,-0.0377 0.06901,0 0.144301,0.0251 0.07529,0.0188 0.131754,0.069 0.06274,0.0502 0.100383,0.14431 0.03764,0.0878 0.03764,0.23213 0,0.10666 -0.03137,0.23841 -0.0251,0.12548 -0.106657,0.26978 z"
           id="path5405-1-0-3-4"
           style="fill:#ffffff;fill-opacity:1;stroke:none" /><path
           d="m -87.765578,-173.13611 q 0,0.069 -0.175672,0.30115 -0.175671,0.23214 -0.470548,0.53956 -0.294877,0.30743 -0.677589,0.64622 -0.376439,0.3388 -0.790521,0.6274 -0.414082,0.28233 -0.828165,0.47055 -0.407808,0.18195 -0.765425,0.18195 -0.282328,0 -0.527013,-0.069 -0.244685,-0.069 -0.470548,-0.18194 -0.21959,-0.11294 -0.426631,-0.26351 -0.200767,-0.15685 -0.388986,-0.32625 -0.188219,-0.16939 -0.376439,-0.35761 -0.188219,-0.18822 -0.36389,-0.36389 -0.169398,-0.18195 -0.326247,-0.3388 -0.150575,-0.15685 -0.282329,-0.26351 -0.232137,0.23214 -0.382712,0.39526 -0.144302,0.16313 -0.232137,0.30743 -0.08156,0.13803 -0.112932,0.28233 -0.03137,0.13803 -0.03137,0.33879 0,0.29488 -0.03137,0.48937 -0.02509,0.1945 -0.106657,0.3137 -0.08156,0.11921 -0.232137,0.16312 -0.150576,0.0502 -0.395261,0.0502 -0.188219,0 -0.30115,-0.0377 -0.112932,-0.0314 -0.175672,-0.10666 -0.05647,-0.0753 -0.07529,-0.19449 -0.01882,-0.1192 -0.01882,-0.28233 0,-0.16312 0.01882,-0.35761 0.0251,-0.20077 0.05647,-0.40781 0.03137,-0.20704 0.06274,-0.40154 0.03764,-0.20076 0.06274,-0.36389 0.0063,-0.0314 0.0251,-0.20076 0.0251,-0.17568 0.05647,-0.43918 0.03137,-0.26351 0.07529,-0.58976 0.04392,-0.33252 0.08156,-0.67131 0.04392,-0.3388 0.08156,-0.65877 0.04392,-0.32625 0.07529,-0.58348 0.03137,-0.25723 0.05019,-0.42035 0.0251,-0.16313 0.0251,-0.18195 0.05019,-0.38271 0.09411,-0.77797 0.05019,-0.40154 0.08784,-0.79052 0.04392,-0.39526 0.07529,-0.7717 0.03137,-0.37644 0.04392,-0.71524 0.0063,-0.1443 0.05647,-0.30115 0.05019,-0.16312 0.144301,-0.29487 0.100384,-0.13176 0.238411,-0.21332 0.144301,-0.0878 0.332521,-0.0878 0.257233,0 0.401534,0.0816 0.150575,0.0816 0.225863,0.20076 0.07529,0.11294 0.09411,0.23842 0.01882,0.1192 0.01882,0.20076 0,0.10666 -0.0251,0.30743 -0.0251,0.20077 -0.06274,0.45172 -0.03137,0.25096 -0.07529,0.52074 -0.04392,0.26351 -0.08783,0.50192 -0.03764,0.23214 -0.06901,0.40781 -0.03137,0.17567 -0.04392,0.24469 -0.125479,0.72778 -0.207041,1.17323 -0.07529,0.43918 -0.119206,0.67759 -0.06274,0.33879 -0.100383,0.56466 -0.03764,0.22586 -0.06274,0.39526 -0.0251,0.16312 -0.04392,0.29487 -0.01882,0.12548 -0.05019,0.26978 0.200767,-0.25723 0.42663,-0.53328 0.232137,-0.27606 0.458,-0.54584 0.225863,-0.27605 0.432904,-0.52701 0.207041,-0.25096 0.357617,-0.458 0.144301,-0.20077 0.357616,-0.47055 0.213315,-0.27606 0.470548,-0.52074 0.263507,-0.24469 0.55211,-0.41408 0.294877,-0.17568 0.589754,-0.17568 0.181945,0 0.301151,0.0627 0.119205,0.0627 0.188219,0.15685 0.06901,0.0941 0.09411,0.20704 0.03137,0.10666 0.03137,0.20077 0,0.15685 -0.144301,0.35134 -0.138028,0.1945 -0.345069,0.40154 -0.207041,0.20077 -0.439178,0.40153 -0.232137,0.20077 -0.414082,0.37644 -0.470548,0.45173 -0.821891,0.82189 -0.345069,0.37017 -0.639945,0.72151 0.163123,0.11293 0.351342,0.2886 0.188219,0.17567 0.388987,0.36389 0.207041,0.18822 0.420356,0.37644 0.213315,0.18822 0.420356,0.33252 0.219589,0.15058 0.357617,0.23841 0.144301,0.0816 0.257233,0.12548 0.112931,0.0377 0.219589,0.0502 0.106657,0.006 0.244685,0.006 0.175671,0 0.388986,-0.0753 0.219589,-0.0753 0.445453,-0.20077 0.232137,-0.12548 0.464274,-0.28233 0.238411,-0.15684 0.451726,-0.32624 0.219589,-0.1694 0.407808,-0.33252 0.188219,-0.16313 0.326247,-0.29488 0.163123,-0.15057 0.269781,-0.24468 0.106657,-0.0941 0.232137,-0.0941 0.09411,0 0.156849,0.0565 0.06274,0.0565 0.100384,0.12548 0.03764,0.069 0.05019,0.13175 0.01882,0.0627 0.01882,0.0753 z"
           id="path5407-8-5-3-4"
           style="fill:#ffffff;fill-opacity:1;stroke:none" /><path
           d="m -84.369177,-178.76184 q 0,-0.37644 -0.06901,-0.53956 -0.06274,-0.1694 -0.150575,-0.1694 -0.112932,0 -0.244685,0.0565 -0.12548,0.0502 -0.244685,0.13802 -0.119206,0.0816 -0.225863,0.18195 -0.100384,0.10038 -0.169397,0.19449 -0.12548,0.18195 -0.282329,0.41409 -0.15685,0.23213 -0.319973,0.49564 -0.163123,0.26351 -0.319973,0.53956 -0.150575,0.27606 -0.269781,0.54584 -0.119205,0.26978 -0.194493,0.52074 -0.07529,0.25096 -0.07529,0.45172 0,0.21332 0.06274,0.34507 0.06274,0.12548 0.225863,0.12548 0.08784,0 0.263507,-0.12548 0.181945,-0.12548 0.388987,-0.3137 0.213315,-0.19449 0.420356,-0.42035 0.207041,-0.22587 0.345069,-0.43291 0.150575,-0.22586 0.30115,-0.48309 0.150576,-0.25724 0.276055,-0.52074 0.12548,-0.26351 0.200767,-0.52074 0.08156,-0.25724 0.08156,-0.4831 z m 3.764385,2.69154 q 0,0.11293 -0.04392,0.2635 -0.04392,0.1443 -0.150575,0.29488 -0.119206,0.20077 -0.313699,0.41408 -0.194493,0.20704 -0.445452,0.38271 -0.244685,0.17568 -0.539562,0.28861 -0.288603,0.10665 -0.608576,0.10665 -0.36389,0 -0.646219,-0.15057 -0.282329,-0.15058 -0.48937,-0.40781 -0.207041,-0.26351 -0.332521,-0.6023 -0.125479,-0.34507 -0.169397,-0.72151 -0.263507,0.38899 -0.602302,0.74661 -0.33252,0.35134 -0.702685,0.62739 -0.36389,0.26978 -0.740329,0.43291 -0.376438,0.15685 -0.715233,0.15685 -0.244685,0 -0.464274,-0.10666 -0.219589,-0.11293 -0.388986,-0.30115 -0.163124,-0.18822 -0.263507,-0.43291 -0.100384,-0.24468 -0.100384,-0.51446 0,-0.23841 0.03764,-0.50192 0.04392,-0.26978 0.138027,-0.57721 0.09411,-0.30742 0.244685,-0.67131 0.15685,-0.36389 0.382713,-0.7968 0.250959,-0.48309 0.608575,-0.916 0.357617,-0.43917 0.727781,-0.76542 0.370165,-0.33252 0.715234,-0.52702 0.345068,-0.19449 0.564657,-0.19449 0.06901,0 0.150576,0.0251 0.08783,0.0188 0.163123,0.0502 0.07529,0.0251 0.131753,0.0502 0.05647,0.0251 0.07529,0.0251 0.0063,0 0.04392,-0.0251 0.03764,-0.0251 0.09411,-0.0502 0.05646,-0.0314 0.119205,-0.0502 0.06901,-0.0251 0.138028,-0.0251 0.106657,0 0.225863,0.0627 0.125479,0.0565 0.238411,0.15685 0.112931,0.0941 0.200767,0.21332 0.08784,0.1192 0.112931,0.23841 0.01882,0.0753 0.03137,0.10665 0.01255,0.0251 0.0251,0.0439 0.08156,0.0753 0.131754,0.1694 0.05019,0.0878 0.05019,0.25096 0,0.0753 -0.04392,0.27605 -0.03764,0.1945 -0.09411,0.44546 -0.05019,0.25095 -0.09411,0.52701 -0.03764,0.26978 -0.03764,0.49564 0,0.58348 0.06901,0.98502 0.07529,0.39526 0.188219,0.63994 0.112932,0.24469 0.257233,0.35135 0.144302,0.10038 0.288603,0.10038 0.382713,0 0.652494,-0.15685 0.276055,-0.15685 0.483096,-0.42663 0.05647,-0.069 0.09411,-0.11921 0.04392,-0.0565 0.08156,-0.0941 0.04392,-0.0376 0.09411,-0.0565 0.05647,-0.0188 0.131753,-0.0188 0.09411,0 0.194493,0.0816 0.100384,0.0753 0.100384,0.20077 z"
           id="path5409-6-87-9-0"
           style="fill:#ffffff;fill-opacity:1;stroke:none" /></g><path
         style="fill:#ffffff;fill-opacity:1;stroke:none;stroke-width:0.264583px;stroke-linecap:butt;stroke-linejoin:miter;stroke-opacity:1"
         d="m -13.68975,-210.4799 c 3.016114,-0.69626 4.9828507,3.02716 4.9828507,3.02716 -14.0530537,52.05464 -64.8478227,14.16076 -98.7340707,3.90696 32.950059,9.44633 66.756001,29.73597 85.28878,14.52746 11.480506,-9.55784 5.446326,-20.76532 8.46244,-21.46158 z"
         id="path4563-9-8-3-8"
         sodipodi:nodetypes="zcccz" /></g></g></svg>
